<svg xmlns="http://www.w3.org/2000/svg" viewBox="0 0 796.98 862.34"><path d="M685,308.66l-.1.12a4.67,4.67,0,0,0-1.83,3l0,.05a4.8,4.8,0,0,0-2,2.8l-.14.16-1.89,2.73-.2.27c-.58,1-1.16,1.92-1.75,2.87l-.12.14-1.93,2.71-.2.28a5.13,5.13,0,0,0-1.69,3l.17.19-.21-.14a4.47,4.47,0,0,0-2,2.87l-.1.1L669,332.65l-.12.13q-1.94,2.94-3.88,5.88l-.1.12c-.66,1-1.31,2.07-2,3.11l-31.47,46.67c17.82,0,34.43,0,51,0a4,4,0,0,0,3.74-1.86q13.15-19.68,26.33-39.34a13,13,0,0,0,3.28-4.76l.14-.17a4.31,4.31,0,0,0,1.8-3l.08-.07,2-2.69.23-.29,1.78-2.63.27-.39c1.24-1.87,2.49-3.74,3.73-5.62a.5.5,0,0,0,.32-.44l.57-.76.16-.18,3.89-5.86.11-.13a5.16,5.16,0,0,0,1.84-3l-.17-.2.21.16a4.51,4.51,0,0,0,2-2.95l.06-.05,2-2.85.11-.12,3.82-6,0-.05a4.6,4.6,0,0,0,1.86-3.09l-.24-.18.24.2c1.31-1.37,2.85-2.61,2.51-4.95-16.76,0-33.33,0-49.89,0-1.88,0-3.73-.11-4.26,2.32l-.11.11-1.92,2.73-.2.24c-.46.78-.92,1.56-1.39,2.33a.39.39,0,0,0-.26.48A5.68,5.68,0,0,0,685,308.66Z" style="fill:#fdfdfd"/><path d="M536.42,332.48l1.09.19c1.33-1.88,2.69-3.73,4-5.63q8.87-12.94,17.69-25.91c1-1.43,2.8-3.45-.91-3.55-5.32-.15-10.64-.11-15.95.05-3.52.11-5.75,2.33-5.83,5.67C536.27,313,536.42,322.75,536.42,332.48Z" style="fill:#fdfdfd"/><path d="M128.89,836.66c-5.74-24-4.77-47.79,2.21-71.41,1-3.37,2.85-5.16,6.13-6.4,18.26-6.86,34.35-16.81,45.45-33.41,2.85-4.25,5.77-8.54,6.75-13.75.14-.45.28-.9.41-1.35.88-2.67,1.89-5.29,2.59-8,2.87-11.07,2.43-22.4,2.82-33.69.13-3.68-1.12-4.8-4.42-5.48-15.53-3.17-30.27-8.73-44.53-15.57-23.73-11.4-45.67-25.73-66.85-41.27a226.31,226.31,0,0,1-50.88-57.2C1.68,505.6-6.23,458.68,4.85,408.7c6.89-31.09,20.6-59.26,37.51-86C51.7,307.92,60.61,293,66,276.13c8.63-27,3.06-51.22-13.18-73.57-4.46-6.16-9.44-11.94-14.83-18.7,22.13,4.08,41,13.54,59.27,24.35.76.62,1.48,1.3,2.29,1.84,17,11.33,31.89,24.76,43,42.17,7.24,11.38,12.51,23.65,16.91,36.33,4,15.32,6.11,30.81,5,46.69-.75,10.77-3.22,21.24-5.14,31.81-3.88,10.26-7.58,20.59-13,30.19-5.81-3.42-9.81-8.84-14.71-13.26-7.34-6.65-11.94-5.4-14.19,4.23-5.07,21.74-7,43.91-8.58,66.12-.55,8-1.11,15.95-1.2,23.94-.09,7.77,3.43,11,10.88,11.06a35.74,35.74,0,0,0,9.87-1.26c1.08.83.94,2.07,1,3.2a257.3,257.3,0,0,0,10,56.36c4.41,14.87,9.78,29.33,19.89,41.49,9.92,16.49,24.19,28.2,40.95,37.94,2.71-13.7,7.85-25.89,13.89-37.74,15.29-.07,29-5.27,41.77-13.21,3.76-2.34,7.12-5.32,8.55-11-14.94,6.27-29.27,11.91-45.26,15,2.77-5.53.76-9.67-.81-13.87-5-13.37-10.69-26.49-14.83-40.18,18.44-5.31,32.16-15.72,37.54-35a64.54,64.54,0,0,0-.31-36.44c-10-33.57-32.1-54.84-66-63.47-5.2-1.33-5.58-3.07-4.51-7.66,5.26-22.71,16.76-42.16,30.74-60.41,6.16-8.05,12.6-15.92,17.3-25,2.13-1.92,4.79-.75,7.18-1.2,18.55-3.52,37.14-2.23,55.22,2,29.7,6.93,59.53,11.45,90.09,10.2,4.63-.2,9.26-.1,13.91-.49,10.1-.82,19.9-3.24,29.9-4.55a100.33,100.33,0,0,1,19.63,35c9.42,29.52,30.12,47.45,59.08,56.69,1.27.41,2.51.88,3.76,1.32-7.35.77-8.34,1.48-9.66,8.81-1.75,9.66,2.16,17.43,8.59,24.31,2.67,2.86,5.45,4.7,9.45,2.9-1.06,4.07-4.86,5.76-7.62,8.1-21.87,18.56-46.45,32.12-74.48,38.91a128.36,128.36,0,0,1-50.57,1.79c-3.77-.59-4.51.2-3.93,3.92,4.66,30.42,23.17,49.16,50.68,60.22,14.44,5.8,29.64,7.27,45.07,7q-1.39,26-4.36,51.84a127.08,127.08,0,0,1-60,1.15c-8.49-3.52-12.79-10.49-15.89-18.7-3.88-10.27-7.27-20.7-10.54-31.77,0,6.09.05,11.52,0,16.95-.1,9.47-.26,18.94-.4,28.4-2.29,22.27-5.72,44.26-15.32,64.79a9.47,9.47,0,0,0-1.24,1.55c-14.54,29.38-34.62,54.45-59.17,76-1.32,1-2.66,2-4,3-32.66,26-68.69,44.21-111,48-4.18.37-8.65.46-12.3,3.46-7.88,6.45-11.89,15-13.82,24.71-.38,1.93-.11,3.1,2.25,3.42,6.41.86,11.36,4.42,15.65,9a3.9,3.9,0,0,0,1.77,2.41c2.27,6.9,1.21,9.63-4.19,9.84A126.31,126.31,0,0,1,141.32,845C136.12,843.9,131.65,841.5,128.89,836.66ZM405.4,395.05c.4,1.07,1.34.59,2.07.73a14.57,14.57,0,0,0,11-2c4.95-3.06,6.79-7.92,8-13.22a28.54,28.54,0,0,0-1.18-19.45c-4.82-12-16.53-16.47-26.54-10.32-7.31,4.49-10.13,11.58-10.75,19.7-.92,12.09,6.77,22.77,17.55,24.68Zm-55-18.83c1.85-3.62,1.2-7.53,1-11.28-1-14.53-12.45-25.05-25.89-24-10.7.85-19.71,10.5-21.79,23.33-3.05,18.89,11.74,35,29.35,31.94C343,394.52,348,388.66,350.41,376.22Zm51.26,83c4.52,0,9,0,13.31-1.66,1.43-.57,3.8-.74,3.39-2.89-.3-1.61-2.38-1.38-3.84-1.51l-10.94-1c-17.58-1.57-33-6.73-40.92-24.48-.89-2-2.51-3.24-4.85-2.06-2.13,1.08-2.47,3-1.92,5.11a30.47,30.47,0,0,0,6.55,12.2C372.74,455.17,386.52,458.86,401.67,459.25Zm-83.1-138.39c2.17.06,4.28-.71,4.59-3.27.37-3.09-2.06-4.29-4.55-5a26.1,26.1,0,0,0-31.77,15.6c-.79,2.14-2.59,5,.57,6.62s4.55-.93,5.85-3.46c4.63-9.1,12.06-12.77,22.17-11.16C316.41,320.3,317.37,320.58,318.57,320.86Zm84-.15a29,29,0,0,0-3.78.51c-2.39.6-4.67,1.71-4,4.68s2.77,3.18,5.44,2.62c6.12-1.26,11.48.54,16.18,4.54,1.83,1.56,3.78,3.27,6,.74s.64-4.68-1.32-6.43C416,322.86,410,320.79,402.56,320.71Z" style="fill:#fc840a"/><path d="M460.26,604.89q2.92-25.86,4.36-51.84c1.2-12.4,2.43-24.79,3.59-37.19s2.2-24.5,3.3-36.76a22,22,0,0,0,4.23-11.35l.22-.32a1.94,1.94,0,0,0,2.22-.71c6.27-7.52,14.82-8.78,23.84-8.64,26.74.4,53.46-.45,80.18-1,.34,0,.67,0,1,0,2.35.19,3.23-.91,3.22-3.23q-.07-30.69,0-61.36c0-2.18-.64-3.06-3-3.52-6.61-1.27-13.24-.59-19.85-.93-2-.1-2.95,1.19-4.34,1.94-1.11-2.17-3.15-1.27-4.85-1.46-4.05-.44-8.24.79-12.19-1-.1-1.28-.2-2.55-.29-3.82l.11-.14c2-.08,2.47-1.09,1.83-2.85l.15-.19c2,0,2.41-1.09,1.92-2.8l.12-.13c1.93-.07,2.36-1.18,2-2.84l0-.06c1.85-.19,2.33-1.29,2-2.95l.21.19-.18-.23c2.62-.52,3.43-2.29,3.25-4.73v0c2.07-.08,2.08-1.51,2-3v0c2.52-.3,2.87-2.07,2.79-4.13l.29.2-.27-.22c1.72-.29,2.28-1.35,2-3l0,0c.62-.08.86-.38.56-1l.25-.35c2.71.19,2.29-1.8,2.37-3.43l0,0c2.08-.08,2.06-1.52,1.95-3h0l.78-1.16,0-.07c.64,0,.89-.34.65-1l.2-.24c1.28.05,1.29-.76,1.14-1.68l.24.14-.22-.18c1.69-.31,2.28-1.36,2-3l.27.24-.25-.26c2.5-.62,3.4-2.33,3.23-4.77v0c1.45-.16,2.12-.79,1.33-2.26l.26-.37c1.37.24,1.24-.65,1.15-1.51l0-.07c.59-.1.85-.42.69-1l.17-.19c2.51-.05,2.29-1.89,2.34-3.55l0,0c1.45-.11,2-.81,1.56-2.26l.1-.11c1.93-.13,2.42-1.17,1.82-2.9l.15-.16c2-.05,2.46-1.09,1.79-2.84l.18-.24c2.12.12,2.4-1.06,1.94-2.75l.12-.12c1.93-.14,2.47-1.12,1.71-2.88l.22-.31c2.16.21,2.38-1,2-2.68l.11-.12c1.92-.1,2.37-1.19,1.91-2.88l.09-.09c1.92-.19,2.47-1.18,1.72-2.93l.21-.27c2.17.16,2.38-1,1.91-2.73l.14-.14c2.33-.08,3.17-2.77,6-2.72,14.87.28,29.75.14,44.63.11,1.93,0,3.67.13,4.26,2.41l-.1.12c-.64,0-.92.18-.59.83a.48.48,0,0,1-.31.42c-3.06.69-4.07,2.74-3.78,5.67l-.21.28c-2.19-.18-2.43,1-1.86,2.71l-.17.2c-3,.78-4,2.9-3.93,5.79l-.11.1c-1.94.07-2.37,1.18-1.94,2.86l-.09.09c-1.88.16-2.38,1.23-1.91,2.93l-.07.07c-1.92.15-2.39,1.23-1.88,2.94l-.11.11c-3.17.67-3.92,3-4.08,5.81l-.23-.16.2.19c-.62.09-.87.39-.58,1l-.24.33c-2.15-.09-2.5.94-1.71,2.7a.54.54,0,0,1-.29.42c-2.27-.32-2.37.93-1.9,2.6l-.14.17c-2,0-2.38,1.12-2,2.81l-.09.09c-1.89.19-2.44,1.2-1.77,2.94l-.16.19c-2.05-.1-2.35,1.1-2,2.75l-.07.08c-2,.57-3.62,1.44-2.6,4l-.27.35c-2.28-.27-2.41.93-1.79,2.63l-.21.28c-1.3-.18-1.29.67-1.22,1.57a1.59,1.59,0,0,0-1.17,1.86v0c-1.48.12-2.08.81-1.47,2.28l-.16.19c-2.05-.1-2.35,1.1-2.05,2.75l0,0c-1.84.22-2.35,1.3-1.91,3l-.07.07c-1.88.15-2.35,1.24-1.95,2.91l-.05.06c-1.85.21-2.41,1.24-1.88,3l-.09.1c-1.92.08-2.37,1.19-2,2.87l-.08.1c-.64,0-.91.28-.69.92l-.21.23c-3,.82-4.05,2.89-3.89,5.8l-.11.12c-2.11.06-2.35,1.41-2.14,3.08a.4.4,0,0,1-.27.48c-1.7.87-4.59-1.66-5.35,1.87q.1,34,.19,68c1.39,1.84,3.38,1.08,5.11,1.07,57.76-.25,115.52.77,173.28-.85,3.74-.1,4.81-1.13,4.78-4.83-.17-17.82,0-35.65-.12-53.47,0-3.27,1.24-6.95-.85-9.71-1.89-2.51-5-.05-7.5-.12-6.39-.19-12.76-1.76-19.19-.64H723.64c4.93-7.35,9.61-14.32,14.28-21.3,15-22.39,30.22-44.63,44.52-67.48,2.6-4.16,6.27-2.06,9.4-1.74s4.6,2.87,4.59,6.15c0,12.16-.92,24.41.24,36.47,1.53,16.05-2.49,29.69-13.09,41.67-2.58,2.92-3.88,7.1-9,6.54-1.86-.2-1.7,1.68-1.71,3q0,31.74-.07,63.48c0,1.68.39,2.74,2.09,3.44,14.62,6,17.7,17.1,16.32,31.17-3.2,32.8-6,65.65-9,98.48-2.42,26.19-4.66,52.4-7.58,78.53-1.52,13.57-11.31,21.34-25.1,21.35-27.82,0-55.64.1-83.47-.1-4,0-5,1.14-4.84,5,.32,9,.18,18,.23,27,.47,2.77,2.68,2,4.32,2,9.26.06,18.51,0,27.77,0,6,0,12.2-.79,18,2h0c1.24,4.44.94,8.93.54,13.43l-.3.34-.69.17.24.36a.73.73,0,0,1-.65.66l-.62,0,.22.34a.49.49,0,0,1-.47.46c-3.62.12-7.24.34-10.86.34q-121.46,0-242.92,0c-7.29,0-14.6.31-21.88-.52l-.19-.18c.13-.64-.13-.93-.78-.88l-.15-.14a29.74,29.74,0,0,1-1-13.64l.07-.09c1.09,0,1.32-.77,1.33-1.66l0,0a54.5,54.5,0,0,1,11.34-1q71.61.07,143.22,0c1.89,0,4.52,1.31,5.48-1.83,1.16-9.79.16-19.61.57-29.41.12-3-1.85-2.56-3.66-2.56h-109c-17.17,0-27.25-10.89-25.78-28.06s3.13-34.49,4.68-51.73C460.35,607.22,460.26,606.05,460.26,604.89Zm87.11-45.5.94-.07c2.73,11.11,5.5,22.22,8.18,33.35.8,3.33,1.86,6,6.15,5.56,4.08-.39,8.52,1.33,10.37-4.82,5-16.54,10.47-32.92,15.69-49.38,1-3.12,4.07-7.13,2.41-9.14-1.86-2.24-6.55-.29-10-.77s-4.72,1.17-5.52,4.13c-2.35,8.66-4.76,17.3-7.31,25.89-1,3.21-1.19,6.74-3.37,9.58-2.94-11.64-5.82-23.07-8.71-34.5-.71-2.8-1.29-5.64-5.32-5.08s-9-1.86-10.72,4.91c-3,11.62-6.81,23-10.58,35.54-2.56-10.1-4.8-19.24-7.19-28.34-3.38-12.87-3.42-12.86-16.84-11.93a3.08,3.08,0,0,0-.66.25c5.21,19.35,10.49,38.71,15.61,58.12,1,3.74,2.64,5.85,6.85,5.49s8.72,1.32,10.3-5.4C540.34,581.51,544.09,570.5,547.37,559.39Zm133.16-25.22c-4.55,0-8.5.09-12.45,0-2.42-.08-3.05,1.36-3.58,3.28-2,7.22-4,14.41-6.11,21.6-1.35,4.71-2.74,9.41-4.49,15.38-3.21-12.65-6-23.93-9-35.18-.44-1.7-.47-3.72-2.36-4.74-5.08-2.76-12.3.48-14,6.12-3,10.31-6.19,20.6-9.62,32-2.78-10.13-5.19-19.08-7.71-28-3.46-12.28-1-10.12-13.81-10.46-3-.08-3.62.64-2.8,3.57q7.61,27.41,14.91,54.87c.84,3.15,1.79,5.75,5.85,5.25s9.19,1.86,10.86-4.83c2.1-8.38,4.66-16.65,7.26-24.9.94-3,1.08-6.35,3.43-9.2,2.77,11.75,5.56,23,8,34.42.75,3.45,2.4,4.84,5.81,4.59a43.93,43.93,0,0,1,5.5.08c2.34.12,3.58-.86,4.32-3.16C667.17,574.74,673.78,554.72,680.53,534.17Zm26.28,38.12c-3.22-11.8-6.24-22.68-9.15-33.59-.64-2.4-1.3-4.53-4.34-4.52H682.21c.21,1.23.29,2,.5,2.83,5,19,10.1,37.9,15,56.87.82,3.14,2.43,4.65,5.64,4.18,3.4-.51,7.83,2.07,9.42-3.71,3.19-11.61,6.68-23.14,10.07-34.75,1.39.71,1.3,2,1.58,3.08,2.61,10.31,5.31,20.6,7.76,31,.73,3.1,2.07,4.74,5.39,4.47a28.68,28.68,0,0,1,5,0c3.06.3,4.38-1,5.18-4,1.8-6.57,4-13,6.07-19.52,3.76-11.88,7.45-23.78,11.33-35.62,1.22-3.72.43-5.08-3.65-4.91-12.09.49-8.88-2.06-12.57,9.31-.66,2.05-1.1,4.18-1.7,6.26-2.22,7.7-4.46,15.39-7.1,24.47-2.92-12.51-5.47-23.48-8-34.45-.72-3.05-1.64-5.93-5.71-5.52-3.65.36-7.87-1.59-9.44,4.48C714.12,549.73,710.4,560.58,706.81,572.29Z" style="fill:#124a6c"/><path d="M159.41,288.55c-4.4-12.68-9.67-24.95-16.91-36.33-11.06-17.41-26-30.84-42.95-42.17-.81-.54-1.53-1.22-2.29-1.84,0-25,0-50,.17-74.92,0-3.58-1.34-4-4.35-4-18.82.11-37.63.07-56.45,0-2.11,0-4.34.56-6.3-.77-.14-.62-.46-.91-1.11-.64a.53.53,0,0,1-.52-.51c.34-.63.17-.76-.45-.46a.46.46,0,0,1-.41-.46c.81-1.71.56-3.54.63-5.34.35-9.12-1.12-18.34,1.59-27.32l.1-.1c1.32.08,1.93-.65,2.13-1.85,2.28.28,4.3,0,5.26-2.48Q64.84,60.58,92.13,31.77c2.72-2.88,5-5.77,6.31-9.83C102.51,9.11,115,1,130.65.09a62.39,62.39,0,0,1,20.23,2.5q70.5,19.22,141,38.56Q383.92,66.44,476,91.82c8.14,2.24,11.38,6.24,11.49,14.53,0,4.16.18,8.33.08,12.49-.14,6.24-3,9.64-9.08,10.4-2.55.32-2.85,1.36-2.84,3.5.07,13.66.12,27.32,0,41,0,2.42,1,3.6,2.76,4.73,6.34,4,12.57,8.14,19,12,2.52,1.54,3.61,3.23,3.56,6.33-.22,12-.07,24-.11,36,0,13.33-7.25,21.26-20.51,22-3.28.19-3.74,1.2-4.12,4.25-1.21,9.78,2,16.84,9.75,23.23,9.64,7.94,11.1,21.77,5,32.32-6.52,11.29-18.36,16.27-30.67,12.55-8-2.41-13.38-7.83-16.18-15.72-1.25-3.52-.31-6.34,3.2-7.83s6.27-.34,8.2,2.69c1.32,2.08,2,4.51,4.07,6.18a13.26,13.26,0,0,0,18.09-1.21,14.38,14.38,0,0,0,.34-19.14,10.17,10.17,0,0,0-1.81-1.72c-10.34-7.41-14.29-17.57-12.89-30,.42-3.77,0-5.66-5-5.65-12.09,0-20.73-9-20.37-20.48.39-12.64.14-25.32,0-38a5.23,5.23,0,0,1,2.87-5.17c6.54-4,12.87-8.29,19.38-12.3,2.4-1.48,3.2-3.24,3.16-6.06-.17-12.49-.31-25,0-37.48.13-4.72-1-6.09-5.91-6.07-57.64.19-115.28.12-172.92.13-27.49,0-55,.08-82.46-.1-3.8,0-4.66,1-4.61,4.68.23,16.49-.11,33,.24,49.48.11,5-1.57,6.18-6.19,6-9-.3-18,.18-27-.19-4.38-.18-5.08,1.35-5.06,5.33C159.56,225.92,159.45,257.23,159.41,288.55ZM388.55,89.26v-.85L159.55,26c0,20,.15,39.15-.11,58.3-.06,4.25,1.13,5.12,5.2,5.11q78.48-.23,156.94-.11ZM97.32,45.52,55.59,89.29H93.9c1.9,0,3.51.18,3.48-2.7C97.25,73.35,97.32,60.11,97.32,45.52Z" style="fill:#124a6c"/><path d="M414.62,304.11c-10,1.31-19.8,3.73-29.9,4.55-4.65.39-9.28.29-13.91.49-30.56,1.25-60.39-3.27-90.09-10.2-18.08-4.22-36.67-5.51-55.22-2-2.39.45-5.05-.72-7.18,1.2-6.06,0-11.71,2.29-17.58,3.33-3.12.56-6.34.87-7.9-2.36-1.4-2.93-.45-6,2.15-8.09,4.51-3.55,4.69-8.32,4.76-13.48.36-29.75,6.72-57.9,24.58-82.28s41.09-41.67,71.43-47.34c20.57-3.84,40.08.61,58.31,10.44,30.23,16.3,51.68,40.36,63.11,73a97.21,97.21,0,0,1,5,23.84c.28,3.26,1.59,4.61,4.36,5.66a51.67,51.67,0,0,1,20.05,13.62c6.91,7.59,6.19,12.66-2.39,18.15C435.11,298.44,424.81,301.12,414.62,304.11Z" style="fill:#fdc80b"/><path d="M79.45,606.33c21.18,15.54,43.12,29.87,66.85,41.27,14.26,6.84,29,12.4,44.53,15.57,3.3.68,4.55,1.8,4.42,5.48-.39,11.29.05,22.62-2.82,33.69-.7,2.71-1.71,5.33-2.59,8-2.15-.07-4.31-.19-6.47-.2q-72.12,0-144.24,0c-3.57,0-6.13-.07-5.74-4.87,1.27-15.75-2.64-31.83,3-47.3h0a1.78,1.78,0,0,0,2-2l0,0c.89,0,1.58-.25,1.7-1.27l.06-.05a7.36,7.36,0,0,0,6.18-2.81c1.31-.88,2.75-.59,4.17-.44a115.58,115.58,0,0,0,27.88-.08c1.42-1.58.68-3.49.69-5.23C79.31,632.86,79.37,619.59,79.45,606.33Z" style="fill:#124a6c"/><path d="M363.29,673.48c25.56,22.45,39.77,51.13,46.31,84.07A258.54,258.54,0,0,1,414,800.71c.18,6.19.13,6.17,5.73,3,9.42-5.32,18.75-10.81,29.07-14.28,4.84-1.62,9.72-2.32,14.64-.38,4.68,1.85,8,5.18,8.63,10.16.63,4.69-2.61,7.67-6.18,10.06C452,818.52,438,827.46,423.5,835.63c-7.76,3.75-15.63,7.27-23.22,11.34-3.86,2.08-4.9.56-5.5-2.81a28.66,28.66,0,0,0-3.32-9.31c-5.34-15.16-13.24-29-22-42.36a114.11,114.11,0,0,0-60.56-46.59,9,9,0,0,1,1.25-1.53A226.13,226.13,0,0,0,348.26,706C355.68,696.31,362.08,686.07,363.29,673.48Z" style="fill:#fc840a"/><path d="M391.46,834.85a28.66,28.66,0,0,1,3.32,9.31c.6,3.37,1.64,4.89,5.5,2.81,7.59-4.07,15.46-7.59,23.22-11.34,14.71,1.68,29.56,2.23,44.08,5.36a81,81,0,0,1,8.57,2.57c1.47.49,2.8,1.38,2.78,3.14s-1.29,2.63-2.7,3.28c-4.9,2.23-10.16,3.16-15.41,4-17,2.66-34.07,3.89-51.18,4.94-59.56,3.63-119.19,3.87-178.83,3-39.81-.56-79.55-2.68-119.14-7A174.17,174.17,0,0,1,88.55,851a19.19,19.19,0,0,1-2.85-.89c-1.7-.69-3.81-1.43-3.88-3.45s2.09-2.87,3.75-3.52c6.58-2.55,13.55-3.35,20.48-4.18,7.6-.91,15.23-1.56,22.84-2.32,2.76,4.84,7.23,7.24,12.43,8.33a126.31,126.31,0,0,0,30.74,2.18c5.4-.21,6.46-2.94,4.2-9.84,1.38-2,3.49-1.18,5.34-1.35,1.52-.14,3.39.51,3.91-1.8l4-.1c6.59,1.81,13.27.74,19.92.6.37,0,.73-1,1.09-1.47h2c2,3,4.78.65,7,.66,42.05.19,84.1.15,126.15.11,1.93,0,4,.64,5.78-.76h3c.36.5.72,1.45,1.1,1.45,6.31.11,12.66,1.26,18.9-.57l2,0c4.12,3.48,8.58,1.87,13,.87Z" style="fill:#124a6c"/><path d="M128.35,488.07a35.74,35.74,0,0,1-9.87,1.26c-7.45,0-11-3.29-10.88-11.06.09-8,.65-16,1.2-23.94,1.54-22.21,3.51-44.38,8.58-66.12,2.25-9.63,6.85-10.88,14.19-4.23,4.9,4.42,8.9,9.84,14.71,13.26a39.5,39.5,0,0,0,13.16,12.84q16.35,16.05,32.67,32.1a48.57,48.57,0,0,1,5.71,6.22c3.35,4.72,2.78,10.59-1.94,13.67a111.17,111.17,0,0,1-32.16,14.08c-2.56-2.4-2.41-6-4-8.89-1.37-2.41-3.27-2.73-5.45-2a3.73,3.73,0,0,0-2.5,4.79,30,30,0,0,0,1.77,5.17c1.4,3,.56,4.33-2.64,5.29C143.29,482.83,135.85,485.54,128.35,488.07Z" style="fill:#5c8298"/><path d="M128.35,488.07c7.5-2.53,14.94-5.24,22.51-7.52,3.2-1,4-2.29,2.64-5.29a30,30,0,0,1-1.77-5.17,3.73,3.73,0,0,1,2.5-4.79c2.18-.77,4.08-.45,5.45,2,1.63,2.86,1.48,6.49,4,8.89-.81,4,1.41,6.25,4.8,6.73,5.8.81,9.91,3.61,12.55,8.67.78,1.51,1.74,1.55,3.22,1.42,5.88-.54,8.34,1,10.28,6.8,2.64,7.87,5.09,15.81,7.67,23.7a19.69,19.69,0,0,0,1.3,2.65c4.14,13.69,9.83,26.81,14.83,40.18,1.57,4.2,3.58,8.34.81,13.87,16-3.1,30.32-8.74,45.26-15-1.43,5.63-4.79,8.61-8.55,11-12.77,7.94-26.48,13.14-41.77,13.21q1.22-3.9,2.42-7.8c-3.69,3.75-8.6,4.16-13,5.75-7.33,2.63-6.76-5-10.15-7.46-2.23-5.34-4.53-10.64-6.64-16-1.22-3.13-2.66-5.69-6.8-5,2.5-.94,5-1.41,7.23-2.33,6.54-2.64,9.59-8,10.22-14.66.61-6.43-2.41-11.07-8.22-14-5.36-2.74-11.09-3.07-16.89-3.2-1.67-5.57-3.1-11.22-5.1-16.68-1.74-4.77-.19-8,3.54-10.79,1-.76,3.47-.62,2.61-2.84a4,4,0,0,0-3.9-2.67c-3.67.25-6.73-1.11-9.78-3.54v44.4A18.88,18.88,0,0,0,157,548.88c.74,2.67,1.85,5.24,2.8,7.85q-.24,16.18-.49,32.39C149.17,577,143.8,562.5,139.39,547.63a257.3,257.3,0,0,1-10-56.36C129.29,490.14,129.43,488.9,128.35,488.07Z" style="fill:#124a6c"/><path d="M687.09,305.58a.39.39,0,0,1,.26-.48c1.42-.2,2.08-.86,1.39-2.33l.2-.24c2.12.13,2.37-1,1.92-2.73l.11-.11c16.51-1.42,33.06-.23,49.59-.67,3-.08,1.85,1.91,2.05,3.31l-.24-.2.24.18a2.26,2.26,0,0,0-1.86,3.09l0,.05c-3,.93-4.11,3-3.82,6l-.11.12c-2,0-2.37,1.17-2,2.85l-.06.05c-1.84.19-2.34,1.27-2,2.95l-.21-.16.17.2c-1.85.24-2.41,1.27-1.84,3l-.11.13c-3.17.71-4.1,2.91-3.89,5.86l-.16.18c-.64-.09-.91.11-.57.76a.5.5,0,0,1-.32.44c-3.05.67-4.08,2.69-3.73,5.62l-.27.39c-2.27-.26-2.41.93-1.78,2.63l-.23.29c-2.15-.21-2.35,1-2,2.69l-.08.07c-1.93.18-2.43,1.23-1.8,3l-.14.17c-2.94.32-2.92,2.67-3.28,4.76q-13.17,19.67-26.33,39.34a4,4,0,0,1-3.74,1.86c-16.61-.08-33.22,0-51,0l31.47-46.67c1.82-.31,2.56-1.29,2-3.11l.1-.12c3.15-.74,4.14-2.9,3.88-5.88l.12-.13c2,0,2.37-1.16,1.93-2.85l.1-.1c1.88-.12,2.34-1.21,2-2.87l.21.14-.17-.19c1.82-.29,2.48-1.24,1.69-3l.2-.28c2.15.17,2.4-1,1.93-2.71l.12-.14c2-.11,2.48-1.11,1.75-2.87l.2-.27c2.16.14,2.42-1,1.89-2.73l.14-.16c2,0,2.36-1.13,2-2.8l0-.05c1.85-.24,2.41-1.27,1.83-3l.1-.12C687.05,308.6,687.31,307.25,687.09,305.58Z" style="fill:#124a6c"/><path d="M743.77,388.41c6.43-1.12,12.8.45,19.19.64,2.54.07,5.61-2.39,7.5.12,2.09,2.76.83,6.44.85,9.71.09,17.82,0,35.65.12,53.47,0,3.7-1,4.73-4.78,4.83-57.76,1.62-115.52.6-173.28.85-1.73,0-3.72.77-5.11-1.07,50.11,0,100.22-.08,150.32.09,4.65,0,5.77-1.27,5.71-5.78-.24-19.31-.08-38.62-.11-57.93C744.18,391.7,743.91,390.05,743.77,388.41Z" style="fill:#295f7f"/><path d="M559.21,390c1.39-.75,2.37-2,4.34-1.94,6.61.34,13.24-.34,19.85.93,2.37.46,3,1.34,3,3.52q-.06,30.67,0,61.36c0,2.32-.87,3.42-3.22,3.23-.33,0-.66,0-1,0-26.72.53-53.44,1.38-80.18,1-9-.14-17.57,1.12-23.84,8.64a1.94,1.94,0,0,1-2.22.71c4.47-7.12,11.33-10.15,19.33-10.27,18.42-.28,36.86-.18,55.29-.22,8.22,0,8.17,0,8.21-8,0-4.63.24-9.26.36-13.89,1.88-1.64,1.9-3.27,0-4.89a23.28,23.28,0,0,1,0-9.11c1.91-1.63,1.92-3.26,0-4.88a10.8,10.8,0,0,1,0-6.12,12.34,12.34,0,0,0,0-11.89A18.13,18.13,0,0,1,559.21,390Z" style="fill:#295f7f"/><path d="M363.29,673.48c-1.21,12.59-7.61,22.83-15,32.5a226.13,226.13,0,0,1-38.16,38.39,9,9,0,0,0-1.25,1.53l-11.19-2.61c24.55-21.58,44.63-46.65,59.17-76a9.47,9.47,0,0,1,1.24-1.55A19.33,19.33,0,0,1,363.29,673.48Z" style="fill:#124a6c"/><path d="M505.47,433.11c-4,1.8-6.78,0-9.45-2.9-6.43-6.88-10.34-14.65-8.59-24.31,1.32-7.33,2.31-8,9.66-8.81,6.71,1.2,13.43,2.32,20.11,3.64,5.14,1,6.2,2.69,4.77,7.62-2.71,9.36-8.23,16.91-15.48,23.28-.52.4-1.32.59-1.07,1.52Z" style="fill:#124a6c"/><path d="M434.08,739.6c7.28.83,14.59.51,21.88.52q121.47,0,242.92,0c3.62,0,7.24-.22,10.86-.34-2.76,2.56-6.22,2-9.48,2q-127.14,0-254.26-.06C441.94,741.74,437.62,742.7,434.08,739.6Z" style="fill:#295f7f"/><path d="M536.42,332.48c0-9.73-.15-19.46.08-29.18.08-3.34,2.31-5.56,5.83-5.67,5.31-.16,10.63-.2,15.95-.05,3.71.1,1.88,2.12.91,3.55q-8.81,13-17.69,25.91c-1.3,1.9-2.66,3.75-4,5.63Z" style="fill:#124a6c"/><path d="M373.39,600.92c.14-9.46.3-18.93.4-28.4.06-5.43,0-10.86,0-16.95,3.27,11.07,6.66,21.5,10.54,31.77,3.1,8.21,7.4,15.18,15.89,18.7C391.08,605.43,382.32,602.73,373.39,600.92Z" style="fill:#124a6c"/><path d="M36.44,658c-5.69,15.47-1.78,31.55-3,47.3-.39,4.8,2.17,4.88,5.74,4.87q72.12-.1,144.24,0c2.16,0,4.32.13,6.47.2-.13.46-.27.91-.41,1.36q-76.86.09-153.73.24c-3,0-3.56-1-3.53-3.74.13-13.14.09-26.29.1-39.43C32.27,664.62,33.28,660.9,36.44,658Z" style="fill:#295f7f"/><path d="M593.42,720.12c-1,3.14-3.59,1.82-5.48,1.83q-71.61.1-143.22,0a54.5,54.5,0,0,0-11.34,1c1.82-2.72,4.72-2.94,7.5-2.94Q517.16,720,593.42,720.12Z" style="fill:#295f7f"/><path d="M159.44,410.08a39.5,39.5,0,0,1-13.16-12.84c5.41-9.6,9.11-19.93,13-30.19Q159.36,388.57,159.44,410.08Z" style="fill:#124a6c"/><path d="M651.85,301.44c-.59-2.28-2.33-2.41-4.26-2.41-14.88,0-29.76.17-44.63-.11-2.8-.05-3.64,2.64-6,2.72.91-3.36,3-4.43,6.55-4.38,15.54.23,31.09.09,46.63.16,1.19,0,3-.85,3.51.73C654.07,299.36,652.87,300.55,651.85,301.44Z" style="fill:#295f7f"/><path d="M742.61,302.33c-.2-1.4,1-3.39-2.05-3.31-16.53.44-33.08-.75-49.59.67.53-2.43,2.38-2.32,4.26-2.32,16.56,0,33.13,0,49.89,0C745.46,299.72,743.92,301,742.61,302.33Z" style="fill:#295f7f"/><path d="M711.47,724c-5.77-2.74-11.92-1.92-18-2-9.26,0-18.51,0-27.77,0-1.64,0-3.85.8-4.32-2,13.66,0,27.33,0,41,0C706,720,709.42,720.41,711.47,724Z" style="fill:#295f7f"/><path d="M30.06,93.83c-2.71,9-1.24,18.2-1.59,27.32-.07,1.8.18,3.63-.63,5.34-2.51-6.94-.61-14.12-1.12-21.17C26.41,101.15,26.69,97,30.06,93.83Z" style="fill:#295f7f"/><path d="M78.47,651.35a115.58,115.58,0,0,1-27.88.08C59.88,650.92,69.17,651,78.47,651.35Z" style="fill:#295f7f"/><path d="M432,724.76a29.74,29.74,0,0,0,1,13.64C429.26,734,429,730.05,432,724.76Z" style="fill:#295f7f"/><path d="M712,737.4c.4-4.5.7-9-.54-13.43C714.94,728.32,714.41,732.82,712,737.4Z" style="fill:#295f7f"/><path d="M475.74,467.75a22,22,0,0,1-4.23,11.35A20.06,20.06,0,0,1,475.74,467.75Z" style="fill:#295f7f"/><path d="M726.89,326.44c-.21-2.95.72-5.15,3.89-5.86Z" style="fill:#295f7f"/><path d="M630.71,332.37c.16-2.78.91-5.14,4.08-5.81C633.64,328.65,632.62,330.82,630.71,332.37Z" style="fill:#295f7f"/><path d="M595.94,383.45c-.16-2.91.93-5,3.89-5.8A19.44,19.44,0,0,1,595.94,383.45Z" style="fill:#295f7f"/><path d="M722.11,333.44c-.35-2.93.68-4.95,3.73-5.62C724.6,329.7,723.35,331.57,722.11,333.44Z" style="fill:#295f7f"/><path d="M588.07,389c.76-3.53,3.65-1,5.35-1.87C592.42,390,589.76,388.09,588.07,389Z" style="fill:#295f7f"/><path d="M559.16,398.16a12.34,12.34,0,0,1,0,11.89Z" style="fill:#124a6c"/><path d="M640.9,317.46c-.09-2.89.94-5,3.93-5.79C643.73,313.74,642.76,315.9,640.9,317.46Z" style="fill:#295f7f"/><path d="M668.85,332.78c.26,3-.73,5.14-3.88,5.88Q666.92,335.72,668.85,332.78Z" style="fill:#295f7f"/><path d="M647.07,308.48c-.29-2.93.72-5,3.78-5.67Z" style="fill:#295f7f"/><path d="M736.89,311.45c-.29-3,.87-5.07,3.82-6Z" style="fill:#295f7f"/><path d="M46.42,651.87a7.36,7.36,0,0,1-6.18,2.81A9.07,9.07,0,0,1,46.42,651.87Z" style="fill:#295f7f"/><path d="M37.55,89.4c-1,2.49-3,2.76-5.25,2.47A7.75,7.75,0,0,1,37.55,89.4Z" style="fill:#295f7f"/><path d="M573.33,337.06c.17,2.44-.73,4.15-3.23,4.77A12,12,0,0,1,573.33,337.06Z" style="fill:#295f7f"/><path d="M553.31,367c.18,2.44-.63,4.21-3.25,4.73A11.92,11.92,0,0,1,553.31,367Z" style="fill:#295f7f"/><path d="M712.54,347.4c.36-2.09.34-4.44,3.28-4.76A13,13,0,0,1,712.54,347.4Z" style="fill:#295f7f"/><path d="M558.08,359.86c.08,2.06-.27,3.83-2.79,4.13A9.58,9.58,0,0,1,558.08,359.86Z" style="fill:#295f7f"/><path d="M617.14,352.48c-1-2.56.56-3.43,2.6-4A9.68,9.68,0,0,1,617.14,352.48Z" style="fill:#295f7f"/><path d="M541.88,383.77c.09,1.27.19,2.54.29,3.82C540.16,386.46,540.72,385.14,541.88,383.77Z" style="fill:#295f7f"/><path d="M563.31,352.05c-.08,1.63.34,3.62-2.37,3.43Z" style="fill:#295f7f"/><path d="M579.33,328.07c-.05,1.66.17,3.5-2.34,3.55A7.31,7.31,0,0,1,579.33,328.07Z" style="fill:#295f7f"/><path d="M720.06,336.46c-.63-1.7-.49-2.89,1.78-2.63Z" style="fill:#295f7f"/><path d="M619.81,348.4c-.32-1.65,0-2.85,2-2.75C621.17,346.57,620.49,347.49,619.81,348.4Z" style="fill:#295f7f"/><path d="M628.15,336.43c-.79-1.76-.44-2.79,1.71-2.7Z" style="fill:#295f7f"/><path d="M670.9,329.8c.44,1.69.06,2.82-1.93,2.85Z" style="fill:#295f7f"/><path d="M626,339.45c-.47-1.67-.37-2.92,1.9-2.6Z" style="fill:#295f7f"/><path d="M570.08,341.85c.31,1.64-.28,2.69-2,3A4.07,4.07,0,0,1,570.08,341.85Z" style="fill:#295f7f"/><path d="M565.28,349c.11,1.5.13,2.94-1.95,3A4.68,4.68,0,0,1,565.28,349Z" style="fill:#295f7f"/><path d="M622,345.46c-.67-1.74-.12-2.75,1.77-2.94A5,5,0,0,1,622,345.46Z" style="fill:#295f7f"/><path d="M615.08,355.46c-.62-1.7-.49-2.9,1.79-2.63Z" style="fill:#295f7f"/><path d="M673,326.83c.35,1.66-.11,2.75-2,2.87A4.47,4.47,0,0,1,673,326.83Z" style="fill:#295f7f"/><path d="M690.86,299.8c.45,1.68.2,2.86-1.92,2.73Z" style="fill:#295f7f"/><path d="M560.09,356.86c.29,1.63-.27,2.69-2,3A4.08,4.08,0,0,1,560.09,356.86Z" style="fill:#295f7f"/><path d="M674.72,323.78c.79,1.76.13,2.71-1.69,3A5.13,5.13,0,0,1,674.72,323.78Z" style="fill:#295f7f"/><path d="M717.84,339.44c-.36-1.65-.16-2.9,2-2.69Z" style="fill:#295f7f"/><path d="M716,342.47c-.63-1.73-.13-2.78,1.8-3A4.31,4.31,0,0,1,716,342.47Z" style="fill:#295f7f"/><path d="M634.9,326.45c-.51-1.71,0-2.79,1.88-2.94C636.16,324.49,635.53,325.47,634.9,326.45Z" style="fill:#295f7f"/><path d="M608.79,364.41c-.3-1.65,0-2.85,2.05-2.75Z" style="fill:#295f7f"/><path d="M555.28,364c.12,1.5.11,2.93-2,3A4.69,4.69,0,0,1,555.28,364Z" style="fill:#295f7f"/><path d="M606.84,367.43c-.44-1.68.07-2.76,1.91-3A3.93,3.93,0,0,1,606.84,367.43Z" style="fill:#295f7f"/><path d="M582.83,322.78c.6,1.73.11,2.77-1.82,2.9C581.62,324.72,582.22,323.75,582.83,322.78Z" style="fill:#295f7f"/><path d="M676.85,320.79c.47,1.69.22,2.88-1.93,2.71Z" style="fill:#295f7f"/><path d="M664.87,338.78c.59,1.82-.15,2.8-2,3.11C663.56,340.85,664.21,339.81,664.87,338.78Z" style="fill:#295f7f"/><path d="M604.82,370.41c-.4-1.67.07-2.76,1.95-2.91Z" style="fill:#295f7f"/><path d="M602.89,373.43c-.53-1.72,0-2.75,1.88-3Z" style="fill:#295f7f"/><path d="M550,371.81c.35,1.66-.13,2.76-2,2.95A4.12,4.12,0,0,1,550,371.81Z" style="fill:#295f7f"/><path d="M600.81,376.4c-.38-1.68.07-2.79,2-2.87Z" style="fill:#295f7f"/><path d="M548,374.82c.37,1.66-.06,2.77-2,2.84Z" style="fill:#295f7f"/><path d="M636.85,323.44c-.47-1.7,0-2.77,1.91-2.93A4.54,4.54,0,0,1,636.85,323.44Z" style="fill:#295f7f"/><path d="M584.77,319.78c.67,1.75.23,2.79-1.79,2.84C583.57,321.67,584.17,320.72,584.77,319.78Z" style="fill:#295f7f"/><path d="M545.89,377.79c.49,1.71.13,2.83-1.92,2.8Z" style="fill:#295f7f"/><path d="M678.72,317.78c.73,1.76.22,2.76-1.75,2.87C677.56,319.7,678.14,318.74,678.72,317.78Z" style="fill:#295f7f"/><path d="M543.82,380.78c.64,1.76.13,2.77-1.83,2.85Z" style="fill:#295f7f"/><path d="M593.69,386.65c-.21-1.67,0-3,2.14-3.08Z" style="fill:#295f7f"/><path d="M623.86,342.43c-.42-1.69-.05-2.83,2-2.81Z" style="fill:#295f7f"/><path d="M730.89,320.45c-.57-1.72,0-2.75,1.84-3A5.16,5.16,0,0,1,730.89,320.45Z" style="fill:#295f7f"/><path d="M638.85,320.42c-.43-1.68,0-2.79,1.94-2.86A5.13,5.13,0,0,1,638.85,320.42Z" style="fill:#295f7f"/><path d="M586.89,316.79c.46,1.69.18,2.87-1.94,2.75Z" style="fill:#295f7f"/><path d="M596.85,301.78c.47,1.69.26,2.89-1.91,2.73Z" style="fill:#295f7f"/><path d="M680.81,314.78c.53,1.71.27,2.87-1.89,2.73Z" style="fill:#295f7f"/><path d="M732.77,317.42c-.38-1.68.12-2.76,2-2.95A4.51,4.51,0,0,1,732.77,317.42Z" style="fill:#295f7f"/><path d="M559.13,416.17c1.92,1.62,1.91,3.25,0,4.88Z" style="fill:#124a6c"/><path d="M588.72,313.79c.76,1.76.22,2.74-1.71,2.88Z" style="fill:#295f7f"/><path d="M559.14,430.16c1.91,1.62,1.89,3.25,0,4.89C559.15,433.42,559.14,431.79,559.14,430.16Z" style="fill:#124a6c"/><path d="M683,311.82c.33,1.67,0,2.83-2,2.8A4.8,4.8,0,0,1,683,311.82Z" style="fill:#295f7f"/><path d="M734.79,314.42c-.38-1.68,0-2.81,2-2.85Z" style="fill:#295f7f"/><path d="M590.9,310.8c.42,1.67.2,2.89-2,2.68Z" style="fill:#295f7f"/><path d="M684.85,308.78c.58,1.72,0,2.75-1.83,3A4.67,4.67,0,0,1,684.85,308.78Z" style="fill:#295f7f"/><path d="M645,311.47c-.57-1.72-.33-2.89,1.86-2.71Z" style="fill:#295f7f"/><path d="M592.92,307.8c.46,1.69,0,2.78-1.91,2.88Z" style="fill:#295f7f"/><path d="M687.09,305.58c.22,1.67,0,3-2.14,3.08A5.68,5.68,0,0,1,687.09,305.58Z" style="fill:#295f7f"/><path d="M594.73,304.78c.75,1.75.2,2.74-1.72,2.93Z" style="fill:#295f7f"/><path d="M740.75,305.4a2.26,2.26,0,0,1,1.86-3.09A4.6,4.6,0,0,1,740.75,305.4Z" style="fill:#295f7f"/><path d="M688.74,302.77c.69,1.47,0,2.13-1.39,2.33C687.82,304.33,688.28,303.55,688.74,302.77Z" style="fill:#295f7f"/><path d="M38.45,656a1.78,1.78,0,0,1-2,2A2.94,2.94,0,0,1,38.45,656Z" style="fill:#295f7f"/><path d="M611,361.47c-.61-1.47,0-2.16,1.47-2.28Z" style="fill:#295f7f"/><path d="M580.91,325.79c.48,1.45-.11,2.15-1.56,2.26Z" style="fill:#295f7f"/><path d="M574.67,334.78c.79,1.47.12,2.1-1.33,2.26C573.78,336.28,574.23,335.53,574.67,334.78Z" style="fill:#295f7f"/><path d="M32.29,91.88c-.2,1.2-.81,1.93-2.13,1.85A2.31,2.31,0,0,1,32.29,91.88Z" style="fill:#295f7f"/><path d="M40.18,654.73c-.12,1-.81,1.28-1.7,1.27Z" style="fill:#295f7f"/><path d="M612.48,359.17a1.59,1.59,0,0,1,1.17-1.86A2.1,2.1,0,0,1,612.48,359.17Z" style="fill:#295f7f"/><path d="M613.65,357.31c-.07-.9-.08-1.75,1.22-1.57C614.47,356.27,614.06,356.79,613.65,357.31Z" style="fill:#295f7f"/><path d="M568.09,344.89c.15.92.14,1.73-1.14,1.68Z" style="fill:#295f7f"/><path d="M576.08,332.9c.09.86.22,1.75-1.15,1.51C575.32,333.91,575.7,333.4,576.08,332.9Z" style="fill:#295f7f"/><path d="M433.36,723c0,.89-.24,1.62-1.33,1.66C432.48,724.12,432.92,723.56,433.36,723Z" style="fill:#295f7f"/><path d="M505.42,433.15c-.25-.93.55-1.12,1.07-1.52C506.68,432.53,506.52,433.17,505.42,433.15Z" style="fill:#fc840a"/><path d="M600,377.42c-.22-.64.05-.92.69-.92Z" style="fill:#295f7f"/><path d="M711.26,738.27l-.24-.36.69-.17A.65.65,0,0,1,711.26,738.27Z" style="fill:#295f7f"/><path d="M433.11,738.54c.65,0,.91.24.78.88Z" style="fill:#295f7f"/><path d="M710.21,739.31,710,739l.62,0A.82.82,0,0,1,710.21,739.31Z" style="fill:#295f7f"/><path d="M560.69,355.83c.3.61.06.91-.56,1C560.31,356.49,560.5,356.16,560.69,355.83Z" style="fill:#295f7f"/><path d="M28.25,127c.62-.3.79-.17.45.46A.69.69,0,0,1,28.25,127Z" style="fill:#295f7f"/><path d="M29.22,127.92c.65-.27,1,0,1.11.64Z" style="fill:#295f7f"/><path d="M566.75,346.81c.24.63,0,.92-.65,1Z" style="fill:#295f7f"/><path d="M630.1,333.4c-.29-.61,0-.91.58-1Z" style="fill:#295f7f"/><path d="M576.82,331.81c.16.6-.1.92-.69,1Z" style="fill:#295f7f"/><path d="M726.16,327.38c-.34-.65-.07-.85.57-.76Z" style="fill:#295f7f"/><path d="M651.16,302.39c-.33-.65,0-.87.59-.83Z" style="fill:#295f7f"/><path d="M566.06,347.85l-.78,1.16Z" style="fill:#295f7f"/><path d="M333,396.22c-17.61,3-32.4-13.05-29.35-31.94,2.08-12.83,11.09-22.48,21.79-23.33,13.44-1.06,24.92,9.46,25.89,24,.24,3.75.89,7.66-1,11.28-2.08-11.92-8-16.84-17.35-14.38-6.64,1.76-12.53,10.62-12.39,18.65C320.81,388.69,325.13,394.18,333,396.22Z" style="fill:#fdfdfd"/><path d="M405.47,395.14c-10.78-1.91-18.47-12.59-17.55-24.68.62-8.12,3.44-15.21,10.75-19.7,10-6.15,21.72-1.64,26.54,10.32a28.54,28.54,0,0,1,1.18,19.45,17,17,0,0,1-.66-2.36c-.89-6.1-4.22-10.3-9-11.24-5.6-1.1-11,1.69-14,7.22C398.58,381.81,400,388.73,405.47,395.14Z" style="fill:#fdfdfd"/><path d="M333,396.22c-7.91-2-12.23-7.53-12.37-15.73-.14-8,5.75-16.89,12.39-18.65,9.32-2.46,15.27,2.46,17.35,14.38C348,388.66,343,394.52,333,396.22Z" style="fill:#124a6c"/><path d="M405.47,395.14c-5.48-6.41-6.89-13.33-2.7-21,3-5.53,8.39-8.32,14-7.22,4.75.94,8.08,5.14,9,11.24a17,17,0,0,0,.66,2.36c-1.17,5.3-3,10.16-8,13.22a14.57,14.57,0,0,1-11,2l-2.07-.73Z" style="fill:#124a6c"/><path d="M401.67,459.25c-15.15-.39-28.93-4.08-39.22-16.25a30.47,30.47,0,0,1-6.55-12.2c-.55-2.15-.21-4,1.92-5.11,2.34-1.18,4,.07,4.85,2.06,7.92,17.75,23.34,22.91,40.92,24.48l10.94,1c1.46.13,3.54-.1,3.84,1.51.41,2.15-2,2.32-3.39,2.89C410.71,459.28,406.19,459.28,401.67,459.25Z" style="fill:#124a6c"/><path d="M318.57,320.86c-1.2-.28-2.16-.56-3.14-.72-10.11-1.61-17.54,2.06-22.17,11.16-1.3,2.53-2.56,5.15-5.85,3.46s-1.36-4.48-.57-6.62a26.1,26.1,0,0,1,31.77-15.6c2.49.76,4.92,2,4.55,5C322.85,320.15,320.74,320.92,318.57,320.86Z" style="fill:#124a6c"/><path d="M402.56,320.71c7.4.08,13.41,2.15,18.46,6.66,2,1.75,3.55,3.87,1.32,6.43s-4.15.82-6-.74c-4.7-4-10.06-5.8-16.18-4.54-2.67.56-4.83.26-5.44-2.62s1.65-4.08,4-4.68A29,29,0,0,1,402.56,320.71Z" style="fill:#124a6c"/><path d="M174.48,834.92c3.66-.41,7.31-1.14,11-.74-.52,2.31-2.39,1.66-3.91,1.8-1.85.17-4-.66-5.34,1.35A3.88,3.88,0,0,1,174.48,834.92Z" style="fill:#295f7f"/><path d="M405.4,395.05l2.07.73C406.74,395.64,405.8,396.12,405.4,395.05Z" style="fill:#fdfdfd"/><path d="M212.47,833.2c40-1.48,80-1.37,120.06-.63,6.31.12,12.61.42,18.91.64-1.77,1.4-3.85.76-5.78.76-42.05,0-84.1.08-126.15-.11C217.25,833.85,214.5,836.21,212.47,833.2Z" style="fill:#295f7f"/><path d="M189.49,834.08c7-.52,14-1.28,21-.87-.36.51-.72,1.46-1.09,1.47C202.76,834.82,196.08,835.89,189.49,834.08Z" style="fill:#295f7f"/><path d="M354.44,833.22l20,.88c-6.24,1.83-12.59.68-18.9.57C355.16,834.67,354.8,833.72,354.44,833.22Z" style="fill:#295f7f"/><path d="M376.44,834.15a59.72,59.72,0,0,1,13,.87C385,836,380.56,837.63,376.44,834.15Z" style="fill:#295f7f"/><path d="M193.36,579.81c-15.07-2.06-26-10.1-33.59-23.08-1-2.61-2.06-5.18-2.8-7.85a18.88,18.88,0,0,1,2.66-16.41c3.81-3.27,7.66-6.47,12.63-7.88,5.8.13,11.53.46,16.89,3.2,5.81,3,8.83,7.61,8.22,14-.63,6.64-3.68,12-10.22,14.66-2.28.92-4.73,1.39-7.23,2.33,4.14-.72,5.58,1.84,6.8,5C188.83,569.17,191.13,574.47,193.36,579.81Z" style="fill:#fc840a"/></svg>