<svg xmlns="http://www.w3.org/2000/svg" viewBox="0 0 126.64 47.23"><path d="M18.8,46.85C28,40.91,28.59,32.2,20.94,23.46c-1.61,4.24-4.18,7.4-9.37,8.07a19.06,19.06,0,0,0,2,1.85,10.81,10.81,0,0,0,6.79,1.69c1.78-.06,1.82,0,1.79,1.77A15.43,15.43,0,0,1,18.8,46.85Z" style="fill:#ff6c1f"/><path d="M16.58,28.14l2-2.82-2.67-.76Z" style="fill:#ff6c1f"/><path d="M6.62,0c.09.77,2.32,3,2.79,5.48a8.43,8.43,0,0,1-1.12,6.81c-1.9,3-3.86,5.89-5.56,9A23.35,23.35,0,0,0,0,31.15c-.4,7.26,3.45,14.27,10.12,15.73a26.55,26.55,0,0,0,6.13.32c-5.36-2-8.22-13.29-7.92-16.69a10.34,10.34,0,0,1,2-5.43c1.91-3,3.9-5.9,4.73-9.66a17.76,17.76,0,0,0,.52-5.22C15.27,6.33,9.48,1.31,6.62,0Z" style="fill:#ff6c1f"/><path d="M37.39,19.07H41l3.49,12.21L48,19.07h3.49L46,35.15H42.83Z" style="fill:#fff"/><path d="M63,29V19.07h3.41V29a8.27,8.27,0,0,1-.79,4Q64.13,35.58,60,35.57T54.28,33a8.26,8.26,0,0,1-.8-4V19.07H56.9V29a5.63,5.63,0,0,0,.39,2.42A2.61,2.61,0,0,0,60,32.73a2.61,2.61,0,0,0,2.66-1.35A5.63,5.63,0,0,0,63,29Z" style="fill:#fff"/><path d="M69.62,19.07H73V32.26h8v2.89H69.62Z" style="fill:#fff"/><path d="M83.27,19.07h3.36V32.26h8v2.89H83.27Z" style="fill:#fff"/><path d="M103.75,29.37h-3.42v5.78H97V19.07h7a5.71,5.71,0,0,1,3.86,1.25,4.8,4.8,0,0,1,1.44,3.85q0,2.85-1.44,4A6.31,6.31,0,0,1,103.75,29.37ZM105.32,26a2.33,2.33,0,0,0,.65-1.83,2.18,2.18,0,0,0-.66-1.79,2.83,2.83,0,0,0-1.85-.53h-3.13V26.6h3.13A2.73,2.73,0,0,0,105.32,26Z" style="fill:#fff"/><path d="M118.93,35.6a7,7,0,0,1-5.27-1.88q-2.44-2.3-2.44-6.63t2.44-6.63a8.33,8.33,0,0,1,10.54,0c1.62,1.47,2.44,3.68,2.44,6.63a8.69,8.69,0,0,1-2.44,6.63A7,7,0,0,1,118.93,35.6Zm3.18-4.32a6.59,6.59,0,0,0,1.16-4.19,6.58,6.58,0,0,0-1.17-4.18,3.82,3.82,0,0,0-3.17-1.48,3.87,3.87,0,0,0-3.18,1.47,6.47,6.47,0,0,0-1.19,4.19,6.47,6.47,0,0,0,1.19,4.19,4.17,4.17,0,0,0,6.36,0Z" style="fill:#fff"/><path d="M40.45,45.47a1.83,1.83,0,0,0,.63-.09.6.6,0,0,0,.46-.6.45.45,0,0,0-.23-.41,2.5,2.5,0,0,0-.71-.24L40.05,44a3.37,3.37,0,0,1-1.13-.41,1.26,1.26,0,0,1-.53-1.13,1.52,1.52,0,0,1,.51-1.17,2.16,2.16,0,0,1,1.5-.46,2.24,2.24,0,0,1,1.41.44,1.56,1.56,0,0,1,.62,1.27H41.37a.72.72,0,0,0-.41-.67,1.34,1.34,0,0,0-.63-.13,1.14,1.14,0,0,0-.68.17.53.53,0,0,0-.25.47.44.44,0,0,0,.25.42,2.76,2.76,0,0,0,.68.22l.9.22a2.23,2.23,0,0,1,.9.38,1.27,1.27,0,0,1,.47,1.06,1.55,1.55,0,0,1-.55,1.2,2.35,2.35,0,0,1-1.55.47,2.51,2.51,0,0,1-1.61-.47,1.55,1.55,0,0,1-.59-1.28h1.05a1,1,0,0,0,.19.54A1.14,1.14,0,0,0,40.45,45.47Z" style="fill:#fff"/><path d="M44.41,46.23h-1V41H45l1,4.12,1-4.12h1.57v5.24h-1v-4c0-.19,0-.33,0-.43l-1,4.4H45.38l-1-4.4v.43c0,.18,0,.32,0,.42Z" style="fill:#fff"/><path d="M52.53,45.15H50.6l-.36,1.08H49.1L51,41H52.2l1.86,5.24H52.87Zm-.3-.9-.66-2.06-.67,2.06Z" style="fill:#fff"/><path d="M56.94,44.17H55.81v2.06H54.74V41h2.57a2.57,2.57,0,0,1,.85.13,1.42,1.42,0,0,1,.5.37,1.34,1.34,0,0,1,.27.44,1.38,1.38,0,0,1,.1.55,1.57,1.57,0,0,1-.19.74,1,1,0,0,1-.62.5,1,1,0,0,1,.51.42,1.6,1.6,0,0,1,.16.82v.35a4.72,4.72,0,0,0,0,.49.44.44,0,0,0,.2.29v.14h-1.2a2.92,2.92,0,0,1-.07-.29,2.14,2.14,0,0,1-.05-.45V45a.91.91,0,0,0-.18-.67A1,1,0,0,0,56.94,44.17Zm.67-1a.59.59,0,0,0,.32-.59.65.65,0,0,0-.31-.64,1.23,1.23,0,0,0-.53-.09H55.81v1.41h1.24A1.36,1.36,0,0,0,57.61,43.22Z" style="fill:#fff"/><path d="M63.78,41v.93H62.21v4.31h-1.1V41.92H59.54V41Z" style="fill:#fff"/><path d="M68.34,45.47a1.83,1.83,0,0,0,.63-.09.6.6,0,0,0,.45-.6.46.46,0,0,0-.22-.41,2.48,2.48,0,0,0-.72-.24L67.93,44a3.47,3.47,0,0,1-1.13-.41,1.28,1.28,0,0,1-.53-1.13,1.52,1.52,0,0,1,.51-1.17,2.16,2.16,0,0,1,1.5-.46,2.25,2.25,0,0,1,1.42.44,1.55,1.55,0,0,1,.61,1.27h-1a.75.75,0,0,0-.41-.67,1.38,1.38,0,0,0-.64-.13,1.11,1.11,0,0,0-.67.17.54.54,0,0,0-.26.47.46.46,0,0,0,.25.42,3.12,3.12,0,0,0,.68.22l.91.22a2.24,2.24,0,0,1,.89.38,1.27,1.27,0,0,1,.47,1.06,1.52,1.52,0,0,1-.55,1.2,2.31,2.31,0,0,1-1.55.47,2.53,2.53,0,0,1-1.61-.47,1.55,1.55,0,0,1-.58-1.28h1a1.13,1.13,0,0,0,.19.54A1.16,1.16,0,0,0,68.34,45.47Z" style="fill:#fff"/><path d="M73.61,46.37a2.29,2.29,0,0,1-1.72-.61,2.83,2.83,0,0,1-.8-2.16,2.77,2.77,0,0,1,.8-2.16,2.29,2.29,0,0,1,1.72-.61,2.26,2.26,0,0,1,1.71.61,2.77,2.77,0,0,1,.79,2.16,2.82,2.82,0,0,1-.79,2.16A2.26,2.26,0,0,1,73.61,46.37Zm1-1.41a2.62,2.62,0,0,0,0-2.72,1.36,1.36,0,0,0-2.07,0,2.57,2.57,0,0,0,0,2.72,1.36,1.36,0,0,0,2.07,0Z" style="fill:#fff"/><path d="M77,41H78v4.29h2.6v.95H77Z" style="fill:#fff"/><path d="M84.49,44.21V41H85.6v3.22a2.75,2.75,0,0,1-.26,1.3,2.43,2.43,0,0,1-3.69,0,2.75,2.75,0,0,1-.26-1.3V41H82.5v3.22a1.92,1.92,0,0,0,.13.79,1.07,1.07,0,0,0,1.73,0A1.76,1.76,0,0,0,84.49,44.21Z" style="fill:#fff"/><path d="M90.45,41v.93H88.88v4.31h-1.1V41.92H86.21V41Z" style="fill:#fff"/><path d="M91,41h1.09v5.24H91Z" style="fill:#fff"/><path d="M95.43,46.37a2.29,2.29,0,0,1-1.72-.61,2.83,2.83,0,0,1-.8-2.16,2.77,2.77,0,0,1,.8-2.16,2.29,2.29,0,0,1,1.72-.61,2.26,2.26,0,0,1,1.71.61,2.77,2.77,0,0,1,.79,2.16,2.82,2.82,0,0,1-.79,2.16A2.26,2.26,0,0,1,95.43,46.37Zm1-1.41a2.62,2.62,0,0,0,0-2.72,1.36,1.36,0,0,0-2.07,0,2.57,2.57,0,0,0,0,2.72,1.36,1.36,0,0,0,2.07,0Z" style="fill:#fff"/><path d="M103,46.23h-1.09l-2.14-3.72v3.72h-1V41H99.9L102,44.64V41h1Z" style="fill:#fff"/><path d="M105.92,45.47a1.83,1.83,0,0,0,.63-.09.6.6,0,0,0,.46-.6.47.47,0,0,0-.23-.41,2.5,2.5,0,0,0-.71-.24l-.56-.12a3.56,3.56,0,0,1-1.13-.41,1.28,1.28,0,0,1-.53-1.13,1.49,1.49,0,0,1,.52-1.17,2.16,2.16,0,0,1,1.5-.46,2.24,2.24,0,0,1,1.41.44,1.55,1.55,0,0,1,.61,1.27h-1a.73.73,0,0,0-.41-.67,1.35,1.35,0,0,0-.64-.13,1.13,1.13,0,0,0-.67.17.53.53,0,0,0-.25.47.44.44,0,0,0,.25.42,2.76,2.76,0,0,0,.68.22l.9.22a2.3,2.3,0,0,1,.9.38,1.26,1.26,0,0,1,.46,1.06,1.54,1.54,0,0,1-.54,1.2,2.36,2.36,0,0,1-1.56.47,2.5,2.5,0,0,1-1.6-.47,1.53,1.53,0,0,1-.59-1.28h1a.91.91,0,0,0,1.11.86Z" style="fill:#fff"/></svg>