<?xml version="1.0" encoding="utf-8"?>
<!-- Generator: Adobe Illustrator 26.0.2, SVG Export Plug-In . SVG Version: 6.00 Build 0)  -->
<svg version="1.1" id="Layer_1" xmlns="http://www.w3.org/2000/svg" xmlns:xlink="http://www.w3.org/1999/xlink" x="0px" y="0px"
	 viewBox="0 0 277.3 253.7" style="enable-background:new 0 0 277.3 253.7;" xml:space="preserve">
<style type="text/css">
	.st0{opacity:0.39;fill:url(#SVGID_1_);enable-background:new    ;}
	.st1{opacity:0.39;fill:url(#SVGID_00000022545335939932593100000010825418950102832539_);enable-background:new    ;}
	.st2{fill:#FFF2B4;}
	.st3{fill:#FF5C51;}
	.st4{opacity:0.45;fill:#FF5C51;enable-background:new    ;}
	.st5{clip-path:url(#SVGID_00000152230911069828311570000016702614300963381659_);}
	.st6{fill:#FFFFFF;}
	.st7{fill:#FF9D97;}
	.st8{fill:#293044;}
	.st9{fill:#656F88;}
	.st10{fill:#3E4B6A;}
	.st11{fill:#FFD22E;}
	.st12{clip-path:url(#SVGID_00000111875140264274218550000017615138804942662292_);}
	.st13{opacity:0.36;fill:#FFD22E;enable-background:new    ;}
	.st14{opacity:0.3;fill:#3E4B6A;enable-background:new    ;}
	.st15{clip-path:url(#SVGID_00000058561065893792730740000006616560823749695367_);}
	.st16{opacity:0.72;fill:#FFD22E;enable-background:new    ;}
	.st17{fill:#FFDB58;}
	.st18{clip-path:url(#SVGID_00000078763364864541428310000008571247993912117128_);}
</style>
<g>
	
		<radialGradient id="SVGID_1_" cx="490.9716" cy="-196.0529" r="105.79" gradientTransform="matrix(0.72 0 0 -3.000000e-02 -195.5711 217.6859)" gradientUnits="userSpaceOnUse">
		<stop  offset="0" style="stop-color:#918F8B"/>
		<stop  offset="0.13" style="stop-color:#918F8B;stop-opacity:0.94"/>
		<stop  offset="0.33" style="stop-color:#918F8B;stop-opacity:0.78"/>
		<stop  offset="0.59" style="stop-color:#918F8B;stop-opacity:0.52"/>
		<stop  offset="0.88" style="stop-color:#918F8B;stop-opacity:0.16"/>
		<stop  offset="1" style="stop-color:#918F8B;stop-opacity:0"/>
	</radialGradient>
	<path class="st0" d="M50.1,223.4c0,2,47.3,3.6,105.7,3.6s105.7-1.6,105.7-3.6s-47.3-3.6-105.7-3.6S50.1,221.4,50.1,223.4z"/>
	
		<radialGradient id="SVGID_00000043452270991394459580000012539457238324735420_" cx="353.2886" cy="-196.0529" r="105.8" gradientTransform="matrix(0.54 0 0 -3.000000e-02 -137.6182 217.6859)" gradientUnits="userSpaceOnUse">
		<stop  offset="0" style="stop-color:#918F8B"/>
		<stop  offset="0.13" style="stop-color:#918F8B;stop-opacity:0.94"/>
		<stop  offset="0.33" style="stop-color:#918F8B;stop-opacity:0.78"/>
		<stop  offset="0.59" style="stop-color:#918F8B;stop-opacity:0.52"/>
		<stop  offset="0.88" style="stop-color:#918F8B;stop-opacity:0.16"/>
		<stop  offset="1" style="stop-color:#918F8B;stop-opacity:0"/>
	</radialGradient>
	<path style="opacity:0.39;fill:url(#SVGID_00000043452270991394459580000012539457238324735420_);enable-background:new    ;" d="
		M-27.5,223.4c0,2,35.4,3.6,79.2,3.6s79.2-1.6,79.2-3.6s-35.4-3.6-79.2-3.6S-27.5,221.4-27.5,223.4z"/>
	<path class="st2" d="M152.3,16.3c-8.2,0-14.8,6.6-14.8,14.8s6.6,14.8,14.8,14.8c8.2,0,14.8-6.6,14.8-14.8c0,0,0,0,0,0
		C167.1,23,160.5,16.4,152.3,16.3z M152.3,41.7c-5.9,0-10.7-4.8-10.7-10.6s4.8-10.7,10.6-10.7c5.9,0,10.7,4.8,10.7,10.6c0,0,0,0,0,0
		C163,37,158.2,41.7,152.3,41.7z"/>
	<path class="st2" d="M181.5,28.8l2.2-1.7l-1-4.7l-2.7-0.9c-0.9-2.5-2-4.8-3.5-7l1.1-2.5l-3.2-3.6L171.4,9c-2-1.7-4.2-3.1-6.5-4.2
		L164.5,2l-4.6-1.5l-2.1,1.9C155.2,2,152.6,1.8,150,2l-1.7-2.2l-4.8,1l-0.9,2.7c-2.5,0.9-4.8,2-6.9,3.5l-2.6-1l-3.6,3.2l0.6,2.8
		c-1.7,2-3.1,4.2-4.2,6.5l-2.7,0.4l-1.5,4.6l1.9,2.1c-0.5,2.6-0.6,5.2-0.4,7.8l-2.2,1.7l1,4.8l2.8,0.9c0.9,2.5,2,4.8,3.5,6.9
		l-1.1,2.5l3.2,3.5l2.8-0.6c2,1.7,4.2,3.1,6.5,4.2l0.4,2.7l4.6,1.5l2.1-1.9c2.6,0.5,5.2,0.6,7.8,0.4l1.7,2.2l4.7-1l0.9-2.8
		c2.5-0.8,4.8-2,7-3.5l2.5,1.1l3.6-3.2l-0.6-2.8c1.7-2,3.1-4.2,4.2-6.5l2.8-0.4l1.5-4.6l-1.9-2.1C181.5,34,181.7,31.4,181.5,28.8z
		 M152.4,47c-8.8,0-15.9-7.1-15.9-15.9c0-8.8,7.1-15.9,15.9-15.9c8.8,0,15.9,7.1,15.9,15.9c0,0,0,0,0,0
		C168.2,39.9,161.1,47,152.4,47L152.4,47L152.4,47z"/>
	<path class="st2" d="M69.7,67.8c-10,0-18.2,8.1-18.2,18.2s8.1,18.2,18.2,18.2c10,0,18.2-8.1,18.2-18.2c0,0,0,0,0,0
		C87.9,76,79.7,67.8,69.7,67.8z M69.7,99.1c-7.2,0-13.1-5.9-13.1-13.1c0-7.2,5.9-13.1,13.1-13.1c7.2,0,13.1,5.9,13.1,13.1
		c0,0,0,0,0,0C82.8,93.2,76.9,99.1,69.7,99.1L69.7,99.1z"/>
	<path class="st2" d="M105.5,83.1l2.7-2.1l-1.2-5.8l-3.4-1c-1.1-3-2.5-5.9-4.3-8.6l1.3-3.1l-4-4.4l-3.4,0.8c-2.4-2.1-5.1-3.8-8-5.2
		l-0.4-3.4L79,48.3l-2.6,2.4c-3.2-0.6-6.4-0.8-9.6-0.5l-2.1-2.7l-5.8,1.2l-1,3.4c-3,1.1-5.9,2.5-8.6,4.3l-3.1-1.3l-4.4,4l0.7,3.4
		c-2.1,2.4-3.8,5.1-5.2,8L33.9,71L32,76.6l2.5,2.6c-0.6,3.2-0.8,6.4-0.5,9.6l-2.7,2.1l1.2,5.8l3.3,1.1c1.1,3,2.5,5.9,4.3,8.6
		l-1.3,3.1l4,4.4l3.4-0.8c2.4,2.1,5.1,3.8,8,5.2l0.4,3.4l5.7,1.8l2.6-2.4c3.2,0.6,6.4,0.8,9.6,0.5l2.1,2.7l5.8-1.2l1.1-3.4
		c3-1,5.9-2.5,8.6-4.3l3.1,1.3l4.4-4l-0.8-3.4c2.1-2.4,3.8-5.1,5.2-8l3.4-0.4l1.9-5.7l-2.4-2.6C105.6,89.5,105.8,86.3,105.5,83.1z
		 M69.7,105.5c-10.8,0-19.5-8.7-19.5-19.5s8.7-19.5,19.5-19.5S89.2,75.2,89.2,86C89.2,96.7,80.5,105.5,69.7,105.5z"/>
	<path class="st2" d="M228.7,31.1c-19.7,0-35.7,16-35.8,35.7c0,19.7,16,35.7,35.7,35.8c19.7,0,35.7-16,35.8-35.7c0,0,0,0,0,0
		C264.4,47.1,248.4,31.1,228.7,31.1z M228.7,76.9c-5.6,0-10.1-4.5-10.1-10.1s4.5-10.1,10.1-10.1c5.6,0,10.1,4.5,10.1,10.1
		c0,0,0,0,0,0C238.7,72.4,234.2,76.9,228.7,76.9z"/>
	<path class="st2" d="M273.3,63.2l3.4-2.6l-1.5-7.3L271,52c-1.3-3.8-3.1-7.4-5.4-10.7l1.6-3.9l-5-5.5l-4.3,1c-3-2.6-6.4-4.8-10-6.5
		l-0.5-4.2l-7.1-2.3l-3.2,3c-4-0.7-8-1-12-0.6l-2.5-3.4l-7.3,1.5l-1.3,4.2c-3.8,1.3-7.4,3.1-10.7,5.4l-3.9-1.6l-5.6,5l1,4.3
		c-2.6,3-4.8,6.4-6.5,10l-4.2,0.6l-2.3,7.1l3,3.2c-0.8,4-1,8-0.6,12l-3.4,2.6l1.5,7.3l4.2,1.3c1.3,3.8,3.1,7.4,5.4,10.7l-1.6,3.9
		l5,5.5l4.3-1c3,2.6,6.4,4.8,10,6.5l0.6,4.2l7.1,2.3l3.2-3c4,0.8,8,1,12,0.6l2.6,3.4l7.3-1.5l1.3-4.2c3.8-1.3,7.4-3.1,10.7-5.4
		l3.9,1.6l5.5-5l-1-4.3c2.6-3,4.8-6.4,6.5-10l4.2-0.6l2.3-7.1l-3-3.2C273.5,71.3,273.7,67.2,273.3,63.2z M228.7,104.9
		c-21,0-38.1-17-38.1-38c0-21,17-38.1,38-38.1c21,0,38.1,17,38.1,38c0,0,0,0.1,0,0.1C266.6,87.9,249.6,104.8,228.7,104.9z"/>
	<polygon class="st3" points="42.9,133.9 54.7,133.9 82.8,220.3 14.8,220.3 	"/>
	<polygon class="st4" points="42.9,133.9 14.8,220.3 35.1,220.2 46.2,133.9 	"/>
	<g>
		<defs>
			<polygon id="SVGID_00000118375767718774612870000007227945455345969341_" points="42.9,133.9 54.7,133.9 82.8,220.3 14.8,220.3 
							"/>
		</defs>
		<clipPath id="SVGID_00000084524929125316971210000011913368718721342870_">
			<use xlink:href="#SVGID_00000118375767718774612870000007227945455345969341_"  style="overflow:visible;"/>
		</clipPath>
		<g style="clip-path:url(#SVGID_00000084524929125316971210000011913368718721342870_);">
			<rect x="15.8" y="186.7" class="st6" width="66" height="16.9"/>
			<rect x="15.8" y="153.1" class="st6" width="66" height="16.9"/>
		</g>
	</g>
	<path class="st7" d="M3.5,220.3h90.7c0.9,0,1.6,0.7,1.6,1.6v0.1c0,0.9-0.7,1.6-1.6,1.6H3.5c-0.9,0-1.6-0.7-1.6-1.6v-0.1
		C1.9,221,2.6,220.3,3.5,220.3z"/>
	<path class="st8" d="M175.8,208.8c-0.6,4.7,1.4,9.3,5.3,12.1h-58.2c0,0,7.2-3.9,5.9-12.1H175.8z"/>
	<path class="st9" d="M117.2,220.7h70.3c0.7,0,1.2,0.5,1.2,1.2v0.3c0,0.7-0.5,1.2-1.2,1.2h-70.3c-0.7,0-1.2-0.5-1.2-1.2v-0.3
		C116,221.2,116.5,220.7,117.2,220.7z"/>
	<path class="st10" d="M58.3,67.6h188.2c3,0,5.4,2.4,5.4,5.3c0,0,0,0,0,0v132.5c0,3.1-2.5,5.6-5.6,5.6H58.5c-3.1,0-5.6-2.5-5.6-5.6
		V73C52.9,70,55.3,67.6,58.3,67.6C58.3,67.6,58.3,67.6,58.3,67.6z"/>
	<path class="st8" d="M52.9,189.8V72.8c0-2.9,2.3-5.2,5.2-5.2h188.5c2.9,0,5.2,2.3,5.2,5.2v117L52.9,189.8z"/>
	<rect x="60.7" y="75.4" class="st11" width="183.3" height="105.9"/>
	<g>
		<defs>
			<rect id="SVGID_00000085972192257582426090000007376384934999819665_" x="60.7" y="75.4" width="183.3" height="105.9"/>
		</defs>
		<clipPath id="SVGID_00000034781633477246964530000016798963565910143659_">
			<use xlink:href="#SVGID_00000085972192257582426090000007376384934999819665_"  style="overflow:visible;"/>
		</clipPath>
		<g style="clip-path:url(#SVGID_00000034781633477246964530000016798963565910143659_);">
			
				<rect x="14.1" y="94.5" transform="matrix(0.7071 -0.7071 0.7071 0.7071 -46.5278 108.894)" class="st13" width="188.2" height="32.2"/>
			
				<rect x="21.7" y="54.8" transform="matrix(0.7071 -0.7071 0.7071 0.7071 -8.4867 99.5081)" class="st13" width="188.2" height="10.4"/>
		</g>
	</g>
	<path class="st14" d="M190.9,67.6H58.1c-2.9,0-5.2,2.3-5.2,5.2c0,0,0,0,0,0v132.7c0,3,2.5,5.5,5.6,5.5h50.7L190.9,67.6z"/>
	<g>
		<defs>
			<polygon id="SVGID_00000090265917922578494060000009834679350919789469_" points="252.9,181.3 51.6,181.3 52.2,89 252.9,89 			
				"/>
		</defs>
		<clipPath id="SVGID_00000055702006038548136130000001668438580965694614_">
			<use xlink:href="#SVGID_00000090265917922578494060000009834679350919789469_"  style="overflow:visible;"/>
		</clipPath>
		<g style="clip-path:url(#SVGID_00000055702006038548136130000001668438580965694614_);">
			<polygon class="st16" points="251.8,130.6 250.1,130.9 235.8,133.6 221.3,136.3 207,139 191.5,141.8 177.3,144.5 162.7,147.2 
				148.5,149.9 135,152.4 120.7,155 106.2,157.8 91.9,160.4 76.4,163.3 62.2,166 52.9,167.7 52.9,136.3 251.8,93.8 			"/>
			<polygon class="st8" points="188.1,114.1 161.6,152.8 176.2,150.1 202.7,111.4 			"/>
			<polygon class="st8" points="160.4,119.3 133.8,158 147.4,155.5 173.9,116.8 			"/>
			<polygon class="st8" points="216.9,108.8 190.4,147.5 205.9,144.6 232.4,105.9 			"/>
			<polygon class="st8" points="73,135.6 50.4,168.6 51.3,173.4 61.1,171.6 87.6,132.9 			"/>
			<polygon class="st8" points="45.3,140.8 47.8,154.3 58.8,138.3 			"/>
			<polygon class="st8" points="246.7,103.2 220.1,141.9 234.7,139.2 261.2,100.5 			"/>
			<polygon class="st8" points="101.8,130.2 75.3,168.9 90.8,166 117.3,127.3 			"/>
			<polygon class="st8" points="131.6,124.7 105,163.4 119.6,160.7 146.1,122 			"/>
			<polygon class="st8" points="275.5,97.9 248.9,136.6 263.5,133.8 290.1,95.1 			"/>
			<polygon class="st8" points="311,119.4 306.6,125.8 312,124.8 			"/>
			<polygon class="st8" points="305.9,92.2 304.3,92.5 277.8,131.2 292.3,128.5 308.3,105.1 			"/>
			<polygon class="st17" points="87.6,132.9 61.1,171.6 75.3,168.9 101.8,130.2 			"/>
			<polygon class="st17" points="58.8,138.3 47.8,154.3 50.4,168.6 73,135.6 			"/>
			<polygon class="st17" points="146.1,122 119.6,160.7 133.8,158 160.4,119.3 			"/>
			<polygon class="st17" points="117.3,127.3 90.8,166 105,163.4 131.6,124.7 			"/>
			<polygon class="st17" points="202.7,111.4 176.2,150.1 190.4,147.5 216.9,108.8 			"/>
			<polygon class="st17" points="173.9,116.8 147.4,155.5 161.6,152.8 188.1,114.1 			"/>
			<polygon class="st17" points="261.2,100.5 234.7,139.2 248.9,136.6 275.5,97.9 			"/>
			<polygon class="st17" points="232.4,105.9 205.9,144.6 220.1,141.9 246.7,103.2 			"/>
			<polygon class="st17" points="308.3,105.1 292.3,128.5 306.6,125.8 311,119.4 			"/>
			<polygon class="st17" points="290.1,95.1 263.5,133.8 277.8,131.2 304.3,92.5 			"/>
		</g>
	</g>
	<polygon class="st3" points="216.8,164.1 228.6,164.1 256.7,250.5 188.7,250.5 	"/>
	<g>
		<defs>
			<polygon id="SVGID_00000021087653463889048130000015708989123309232312_" points="216.8,164.1 228.6,164.1 256.7,250.5 
				188.7,250.5 			"/>
		</defs>
		<clipPath id="SVGID_00000092434410731656366700000005477379719188200383_">
			<use xlink:href="#SVGID_00000021087653463889048130000015708989123309232312_"  style="overflow:visible;"/>
		</clipPath>
		<g style="clip-path:url(#SVGID_00000092434410731656366700000005477379719188200383_);">
			<rect x="189.7" y="216.9" class="st6" width="66" height="16.9"/>
			<rect x="189.7" y="183.3" class="st6" width="66" height="16.9"/>
		</g>
	</g>
	<path class="st7" d="M177.4,250.5h90.7c0.9,0,1.6,0.7,1.6,1.6v0.1c0,0.9-0.7,1.6-1.6,1.6h-90.7c-0.9,0-1.6-0.7-1.6-1.6v-0.1
		C175.8,251.2,176.5,250.5,177.4,250.5z"/>
	<polygon class="st4" points="216.8,164.1 188.7,250.5 209,250.5 220.1,164.1 	"/>
</g>
</svg>
